<svg xmlns="http://www.w3.org/2000/svg" width="17" height="17" viewBox="0 0 17 17" fill="#CA9F20">
  <path fill-rule="evenodd" clip-rule="evenodd" d="M15.011 3.87096C15.1437 4.0038 15.2183 4.18393 15.2183 4.37176C15.2183 4.55958 15.1437 4.73972 15.011 4.87255L7.04787 12.8363C6.97551 12.9087 6.8896 12.9662 6.79505 13.0053C6.70049 13.0445 6.59914 13.0647 6.49679 13.0647C6.39443 13.0647 6.29308 13.0445 6.19853 13.0053C6.10397 12.9662 6.01806 12.9087 5.9457 12.8363L1.98895 8.87959C1.92314 8.81378 1.87094 8.73565 1.83532 8.64966C1.7997 8.56367 1.78137 8.47151 1.78137 8.37844C1.78137 8.28537 1.7997 8.19321 1.83532 8.10723C1.87094 8.02124 1.92314 7.94311 1.98895 7.8773C2.05476 7.81149 2.13289 7.75928 2.21888 7.72367C2.30487 7.68805 2.39703 7.66972 2.4901 7.66972C2.58317 7.66972 2.67533 7.68805 2.76132 7.72367C2.8473 7.75928 2.92543 7.81149 2.99125 7.8773L6.4975 11.3835L14.0087 3.87096C14.1415 3.73817 14.3216 3.66357 14.5095 3.66357C14.6973 3.66357 14.8781 3.73817 15.011 3.87096Z" fill="#EACF7F" stroke="#EACF7F"/>
</svg>